<svg width="0" height="0" class="hidden">
  <symbol version="1.1" xmlns="http://www.w3.org/2000/svg" viewBox="0 0 110 32" id="logo">
    <title>icomoon-1</title>
    <path fill="#764191" d="M16.403 0.143c0.434-0.050 0.936 0.047 1.354 0.174 0.945 0.288 1.714 0.904 2.169 1.784 0.274 0.511 0.435 1.119 0.435 1.764 0 0.416-0.067 0.816-0.19 1.19l0.008-0.027c-0.397 1.196-1.248 1.798-2.31 2.351l0.012 3.489c0.759 0.232 1.498 0.494 2.187 0.893 1.585 0.918 2.669 2.467 3.123 4.23 0.147 0.544 0.232 1.169 0.232 1.813 0 1.344-0.368 2.603-1.009 3.68l0.018-0.033c-0.887 1.493-2.3 2.596-3.993 3.018-2.211 0.553-4.087-0.046-5.987-1.175-0.742 0.791-1.554 1.677-2.356 2.573l-0.133 0.151c0.366 0.864 0.488 1.771 0.245 2.689-0.237 0.897-0.866 1.666-1.67 2.121-0.901 0.51-1.928 0.602-2.916 0.32-0.981-0.281-1.805-0.888-2.284-1.8-0.472-0.897-0.511-1.949-0.206-2.907 0.348-1.089 1.056-1.759 2.052-2.257 1.072-0.419 1.959-0.281 3.006 0.096 0.872-0.917 1.692-1.881 2.573-2.79-0.968-1.898-1.281-3.515-0.778-5.606-1.095-0.511-2.152-1.107-3.248-1.619-0.586 0.61-1.302 1.028-2.143 1.169-1.003 0.169-2.060-0.105-2.884-0.693-0.817-0.592-1.354-1.494-1.486-2.494-0.135-0.969 0.12-2.037 0.741-2.802 0.64-0.789 1.634-1.266 2.637-1.371 0.108-0.011 0.234-0.018 0.361-0.018 0.904 0 1.733 0.322 2.378 0.858l-0.006-0.005c0.976 0.818 1.259 1.835 1.377 3.046 1.039 0.637 2.229 1.128 3.311 1.697 1.409-1.665 2.439-2.191 4.492-2.824l0.001-3.463c-0.367-0.147-0.734-0.326-1.054-0.561-0.79-0.589-1.334-1.471-1.472-2.482l-0.002-0.019c-0.018-0.136-0.028-0.294-0.028-0.454 0-0.882 0.304-1.694 0.814-2.335l-0.006 0.008c0.678-0.851 1.585-1.238 2.636-1.377zM20.93 17.368c-0.209-2.382-2.302-4.148-4.686-3.955-2.404 0.196-4.19 2.311-3.979 4.714s2.337 4.176 4.739 3.951c2.38-0.224 4.134-2.328 3.925-4.71zM102.108 11.958c0.708 0.001 1.416 0.010 2.124 0.028l-0.004 3.743c0.545-0.424 1.14-0.741 1.83-0.844 0.157-0.025 0.339-0.039 0.523-0.039 0.798 0 1.534 0.267 2.123 0.716l-0.009-0.006c0.908 0.687 1.385 1.843 1.523 2.948 0.175 1.402-0.154 2.75-1.019 3.867-0.574 0.554-1.262 0.941-2.056 1.072-1.165 0.191-2.089-0.216-2.998-0.894l-0.004 0.818-2.033-0.004-0.001-11.403zM105.748 16.862c-0.631 0.21-1.070 0.509-1.378 1.117-0.342 0.675-0.365 1.509-0.098 2.212 0.203 0.538 0.585 1.004 1.117 1.244 0.386 0.175 0.749 0.18 1.165 0.155 0.659-0.249 1.102-0.569 1.401-1.229 0.312-0.689 0.307-1.52 0.011-2.214-0.227-0.533-0.632-0.963-1.177-1.174-0.341-0.131-0.682-0.149-1.042-0.111zM41.271 11.936c1.246 3.84 2.84 7.576 4.056 11.426l-2.296 0.002c-0.269-0.822-0.529-1.752-0.939-2.512-0.268-0.115-0.586-0.076-0.873-0.073-1.108 0.011-2.215 0.008-3.323-0.011-0.348 0.848-0.628 1.721-0.903 2.595l-2.339-0.002c1.221-3.833 2.677-7.617 3.996-11.42 0.872 0.019 1.749-0.002 2.622-0.005zM39.962 14.775c-0.483 1.374-0.934 2.768-1.464 4.125l1.681-0.001 1.307-0.014c-0.184-0.517-1.25-3.881-1.524-4.11zM89.685 11.961l2.196 0.013c-0.030 2.647-0.007 5.298-0.007 7.945-0.001 1.093 0.11 2.287-0.012 3.365l-0.121 0.083h-2.058l-0.004-4.889c-1.645-0.046-3.303-0.005-4.949-0.003l0.001 4.894-2.209-0.004 0.009-11.401 2.201 0.005 0.001 4.662h4.957l-0.003-4.67zM93.202 15.121c0.729 0.021 1.46 0.013 2.188 0.017-0.009 1.165-0.193 4.384 0.089 5.347 0.111 0.38 0.333 0.728 0.693 0.913 0.541 0.278 1.090 0.117 1.628-0.072 0.238-0.266 0.443-0.515 0.561-0.859 0.386-1.123 0.18-4.006 0.174-5.343 0.694 0.019 1.391 0.004 2.085 0-0.016 0.8-0.003 1.603-0.004 2.404l0.011 5.834c-0.683 0.010-1.365 0.005-2.047-0.015l-0.063-0.074c0.010-0.173 0.013-0.314-0.018-0.487-0.639 0.277-1.209 0.697-1.936 0.712-0.843 0.017-1.758-0.245-2.363-0.851-0.459-0.459-0.739-1.076-0.883-1.703-0.31-1.348-0.127-4.332-0.113-5.824zM63.686 14.891c1.089-0.085 2.224-0.008 3.104 0.725 0.617 0.514 0.816 1.13 0.883 1.897l-1.968-0.002c-0.113-0.21-0.227-0.454-0.404-0.619-0.284-0.262-0.694-0.398-1.078-0.377-0.298 0.016-0.679 0.135-0.865 0.387-0.113 0.154-0.175 0.311-0.132 0.503 0.224 1.009 2.79 0.884 3.607 1.419 0.52 0.341 0.919 0.951 1.034 1.56 0.024 0.125 0.038 0.269 0.038 0.416 0 0.511-0.168 0.984-0.451 1.365l0.004-0.006c-0.627 0.865-1.593 1.175-2.599 1.329-0.931 0.056-2.011-0.194-2.756-0.761-0.699-0.532-0.95-1.185-1.045-2.025 0.663 0.002 1.326-0.005 1.989-0.018 0.039 0.125 0.082 0.246 0.145 0.361 0.289 0.533 0.865 0.651 1.4 0.808 0.353-0.081 0.831-0.172 1.082-0.457 0.151-0.172 0.204-0.471 0.14-0.691-0.245-0.843-2.703-0.943-3.556-1.468-0.505-0.311-0.876-0.764-1.011-1.349-0.121-0.53-0.075-1.125 0.223-1.59 0.538-0.84 1.28-1.185 2.216-1.408zM76.929 14.889c0.62-0.050 1.227-0.047 1.831 0.117 0.697 0.189 1.438 0.578 1.79 1.239 0.17 0.317 0.3 0.886 0.186 1.237-0.565 0.122-1.255 0.040-1.835 0.033-0.086-0.287-0.158-0.509-0.391-0.707-0.244-0.206-0.562-0.33-0.91-0.33-0.054 0-0.107 0.003-0.159 0.009l0.006-0.001c-0.3 0.031-0.685 0.178-0.852 0.447-0.1 0.16-0.141 0.325-0.078 0.509 0.363 1.068 2.535 0.814 3.38 1.297 0.538 0.308 0.988 0.848 1.141 1.454 0.164 0.65 0.056 1.372-0.319 1.931-0.56 0.835-1.449 1.149-2.388 1.331-0.921 0.114-1.989-0.082-2.759-0.613-0.791-0.545-1.028-1.229-1.206-2.123l1.973-0.015c0.12 0.302 0.229 0.537 0.485 0.746 0.341 0.279 0.745 0.406 1.184 0.347 0.341-0.045 0.676-0.202 0.88-0.487 0.133-0.187 0.2-0.414 0.136-0.642-0.247-0.878-2.426-0.823-3.29-1.288-0.584-0.315-1.046-0.838-1.231-1.481-0.157-0.544-0.091-1.11 0.196-1.599 0.477-0.81 1.353-1.206 2.231-1.409zM52.641 12.857c0.655 0.023 1.315 0.009 1.97 0.011-0.007 0.74 0.004 1.48 0.032 2.219l1.944 0.001-0.004 1.694-1.851-0.001c0.001 1.066-0.243 3.817 0.246 4.641 0.382 0.301 1.145 0.189 1.609 0.183l-0.007 1.404c0.004 0.145 0.004 0.218-0.070 0.344-0.259 0.124-0.524 0.152-0.81 0.154-0.752 0.007-1.791-0.129-2.331-0.693-1.086-1.131-0.739-4.457-0.734-6.035l-1.254 0.002 0.004-1.698 1.249 0.008 0.007-2.236zM69.539 12.848l1.934 0.011c-0.015 0.741 0.016 1.485 0.030 2.226l1.975-0.004-0.003 1.702-1.859-0.001c0.023 1.015-0.226 3.85 0.234 4.617 0.494 0.295 1.113 0.216 1.668 0.215-0.007 0.489 0.003 0.979 0.005 1.469l-0.023 0.186c-0.191 0.202-0.486 0.194-0.747 0.2-0.794 0.019-1.891-0.107-2.467-0.71-1.075-1.126-0.74-4.405-0.731-5.978l-1.323 0.001c-0.017-0.564-0.010-1.129-0.015-1.692l1.318 0.007 0.004-2.249zM27.82 11.582c0.102-0.005 0.2-0.007 0.302 0.008 0.316 0.046 0.628 0.198 0.802 0.476 0.185 0.294 0.21 0.687 0.235 1.028 0.125 1.688 0.032 3.444 0.032 5.138-0 1.384 0.153 3.26-0.104 4.592-0.081 0.419-0.358 0.619-0.691 0.846-0.127 0.015-0.259 0.033-0.387 0.026-0.285-0.016-0.556-0.143-0.74-0.361-0.183-0.216-0.177-0.648-0.193-0.919-0.116-1.942-0.018-3.946-0.016-5.893 0.001-1.107-0.151-3.225 0.082-4.213 0.083-0.353 0.402-0.539 0.68-0.727zM50.244 15.058l0.278-0.003c0.329 0.368 0.166 1.535 0.155 2.018-0.696-0.007-1.354-0.035-1.899 0.471-1.023 0.949-0.678 4.425-0.688 5.82-0.548-0.005-1.617 0.195-2.035-0.154l-0.022-0.346c0.010-2.586-0.055-5.169-0.038-7.754 0.664 0.021 1.33 0.007 1.994 0.003l-0.023 1.142c0.123-0.177 0.245-0.366 0.388-0.527 0.503-0.568 1.186-0.619 1.891-0.669zM57.795 15.092l2.086 0.001 0.005 8.275-2.11-0.003 0.019-8.273zM24.906 14.293c0.343 0.063 0.645 0.192 0.845 0.489 0.308 0.459 0.316 4.955 0.162 5.596-0.084 0.351-0.388 0.522-0.675 0.691-0.33-0.020-0.763-0.049-0.983-0.335-0.327-0.425-0.3-5.203-0.114-5.802 0.108-0.348 0.466-0.495 0.765-0.639zM58.7 11.683c0.62-0.073 1.185 0.36 1.276 0.978s-0.325 1.195-0.939 1.304c-0.414 0.073-0.835-0.084-1.099-0.411s-0.33-0.771-0.171-1.161c0.159-0.384 0.509-0.659 0.928-0.71l0.006-0.001z"></path>
  </symbol>
  <symbol version="1.1" xmlns="http://www.w3.org/2000/svg" viewBox="0 0 32 32" id="icon-x">
    <title>icon</title>
    <path fill="#fff" d="M27.179 0.918l-11.315 11.312-11.312-11.312-3.771 3.771 11.312 11.312-11.312 11.312 3.771 3.771 11.312-11.312 11.315 11.312 3.771-3.771-11.312-11.312 11.312-11.312-3.771-3.771z"></path>
  </symbol>
  <symbol version="1.1" xmlns="http://www.w3.org/2000/svg" viewBox="0 0 16 12" id="icon1">
    <title>icon1</title>
    <path fill="#fff" d="M0 0h42.667v5.333h-42.667v-5.333zM10.667 13.333h32v5.333h-32v-5.333zM24 26.667h18.667v5.333h-18.667v-5.333z"></path>
  </symbol>
</svg>